<?xml version="1.0" standalone="no"?>
<!DOCTYPE svg PUBLIC "-//W3C//DTD SVG 20010904//EN"
 "http://www.w3.org/TR/2001/REC-SVG-20010904/DTD/svg10.dtd">
<svg version="1.0" xmlns="http://www.w3.org/2000/svg"
 width="1920.000000pt" height="1080.000000pt" viewBox="0 0 1920.000000 1080.000000"
 preserveAspectRatio="xMidYMid meet">

<g transform="translate(0.000000,1080.000000) scale(0.100000,-0.100000)"
fill="#000000" stroke="none">
<path d="M2150 9390 c-74 -16 -166 -67 -204 -113 -71 -88 -100 -180 -100 -322
-2 -295 144 -455 414 -455 204 0 336 89 392 265 29 90 31 270 6 355 -39 125
-124 219 -232 255 -60 20 -212 28 -276 15z m234 -180 c23 -16 47 -46 64 -80
25 -51 27 -64 27 -180 0 -117 -2 -129 -28 -183 -39 -78 -92 -110 -186 -110
-73 0 -110 14 -153 60 -43 45 -60 99 -66 204 -8 159 39 271 128 308 14 6 59
10 101 8 62 -2 82 -7 113 -27z"/>
<path d="M3151 9384 c-92 -19 -161 -56 -215 -114 -92 -99 -130 -241 -109 -409
24 -189 112 -303 268 -347 76 -21 277 -14 375 13 l65 18 3 228 2 227 -175 0
-175 0 0 -75 0 -75 85 0 85 0 0 -90 c0 -106 2 -105 -110 -104 -161 0 -232 86
-233 284 -1 79 3 104 22 148 28 62 93 123 149 140 59 18 152 14 223 -8 35 -10
65 -17 68 -15 6 7 61 138 58 140 -16 10 -76 28 -132 40 -86 18 -170 18 -254
-1z"/>
<path d="M3995 9385 c-186 -48 -285 -199 -285 -435 0 -207 76 -347 225 -417
56 -26 69 -28 190 -28 125 0 133 1 195 31 152 72 220 201 220 417 0 210 -85
360 -236 416 -77 30 -224 37 -309 16z m240 -168 c78 -44 108 -119 108 -267 0
-136 -27 -213 -93 -261 -36 -27 -115 -39 -175 -28 -112 21 -167 114 -168 279
-1 208 67 300 223 300 49 0 75 -6 105 -23z"/>
<path d="M15645 9387 c-79 -21 -126 -47 -181 -102 -81 -80 -122 -222 -111
-379 19 -265 162 -406 411 -406 248 0 387 125 415 370 10 95 -1 220 -28 289
-58 154 -173 229 -361 237 -58 2 -114 -1 -145 -9z m224 -165 c84 -42 127 -154
118 -302 -7 -110 -29 -170 -77 -213 -65 -60 -179 -69 -262 -21 -20 12 -45 41
-62 74 -26 48 -30 67 -34 161 -3 79 0 120 12 162 18 63 65 123 111 143 44 20
153 18 194 -4z"/>
<path d="M16670 9389 c-219 -39 -340 -196 -340 -443 0 -214 69 -344 219 -415
53 -25 64 -26 206 -25 114 1 167 5 220 20 l70 19 3 228 2 227 -175 0 -175 0 0
-75 0 -75 80 0 80 0 0 -94 0 -94 -65 -7 c-121 -13 -210 33 -251 130 -25 59
-30 198 -11 266 37 125 123 189 254 189 48 0 95 -7 134 -20 34 -12 62 -20 63
-18 8 11 56 131 56 138 0 5 -30 19 -67 30 -79 24 -223 33 -303 19z"/>
<path d="M17520 9390 c-74 -16 -166 -67 -204 -113 -71 -88 -100 -180 -100
-322 -2 -295 144 -455 414 -455 204 0 336 89 392 265 29 90 31 270 6 355 -39
125 -124 219 -232 255 -60 20 -212 28 -276 15z m234 -180 c23 -16 47 -46 64
-80 25 -51 27 -64 27 -180 0 -117 -2 -129 -28 -183 -39 -78 -92 -110 -186
-110 -73 0 -110 14 -153 60 -43 45 -60 99 -66 204 -8 159 39 271 128 308 14 6
59 10 101 8 62 -2 82 -7 113 -27z"/>
<path d="M1190 8950 l0 -440 270 0 270 0 0 75 0 75 -175 0 -175 0 -2 363 -3
362 -92 3 -93 3 0 -441z"/>
<path d="M14700 8950 l0 -440 270 0 270 0 0 75 0 75 -177 2 -178 3 -3 363 -2
362 -90 0 -90 0 0 -440z"/>
<path d="M8902 5800 c-66 -14 -143 -54 -185 -96 -84 -83 -117 -182 -117 -346
0 -221 78 -358 240 -423 59 -23 220 -32 291 -15 192 45 298 200 299 436 0 212
-86 367 -238 424 -65 25 -219 35 -290 20z m214 -169 c79 -36 114 -118 114
-271 0 -199 -66 -291 -209 -293 -106 -1 -159 33 -203 128 -19 43 -22 67 -22
165 0 98 3 123 23 167 39 88 92 122 191 122 42 0 79 -6 106 -18z"/>
<path d="M9904 5796 c-196 -45 -307 -175 -329 -387 -8 -77 8 -201 37 -276 28
-75 102 -153 180 -189 60 -28 70 -29 203 -29 104 0 160 5 218 19 l77 19 0 228
0 229 -175 0 -175 0 0 -75 0 -75 85 0 85 0 0 -94 0 -93 -60 -7 c-120 -14 -198
20 -245 106 -26 47 -30 65 -33 155 -3 75 0 114 12 150 49 147 200 209 377 153
35 -10 67 -16 70 -12 13 13 60 134 55 139 -3 3 -36 14 -73 25 -90 25 -231 32
-309 14z"/>
<path d="M10755 5797 c-79 -21 -126 -47 -181 -102 -81 -80 -122 -222 -111
-379 19 -265 162 -406 411 -406 248 0 387 125 415 370 10 95 -1 220 -28 289
-58 154 -173 229 -361 237 -58 2 -114 -1 -145 -9z m224 -165 c84 -42 127 -154
118 -302 -7 -110 -29 -170 -77 -213 -65 -60 -179 -69 -262 -21 -20 12 -45 41
-62 74 -26 48 -30 67 -34 161 -3 79 0 120 12 162 18 63 65 123 111 143 44 20
153 18 194 -4z"/>
<path d="M7947 5793 c-4 -3 -7 -201 -7 -440 l0 -433 270 0 270 0 0 75 0 75
-175 0 -175 0 0 365 0 365 -88 0 c-49 0 -92 -3 -95 -7z"/>
<path d="M2150 2220 c-74 -16 -166 -67 -204 -113 -71 -88 -100 -180 -100 -322
-2 -295 144 -455 414 -455 204 0 336 89 392 265 29 90 31 270 6 355 -39 125
-124 219 -232 255 -60 20 -212 28 -276 15z m234 -180 c23 -16 47 -46 64 -80
25 -51 27 -64 27 -180 0 -117 -2 -129 -28 -183 -39 -78 -92 -110 -186 -110
-73 0 -110 14 -153 60 -43 45 -60 99 -66 204 -8 159 39 271 128 308 14 6 59
10 101 8 62 -2 82 -7 113 -27z"/>
<path d="M3151 2214 c-92 -19 -161 -56 -215 -114 -92 -99 -130 -241 -109 -409
24 -189 112 -303 268 -347 76 -21 277 -14 375 13 l65 18 3 228 2 227 -175 0
-175 0 0 -75 0 -75 85 0 85 0 0 -90 c0 -106 2 -105 -110 -104 -161 0 -232 86
-233 284 -1 79 3 104 22 148 28 62 93 123 149 140 59 18 152 14 223 -8 35 -10
65 -17 68 -15 6 7 61 138 58 140 -16 10 -76 28 -132 40 -86 18 -170 18 -254
-1z"/>
<path d="M3995 2215 c-186 -48 -285 -199 -285 -435 0 -207 76 -347 225 -417
56 -26 69 -28 190 -28 125 0 133 1 195 31 152 72 220 201 220 417 0 210 -85
360 -236 416 -77 30 -224 37 -309 16z m240 -168 c78 -44 108 -119 108 -267 0
-136 -27 -213 -93 -261 -36 -27 -115 -39 -175 -28 -112 21 -167 114 -168 279
-1 208 67 300 223 300 49 0 75 -6 105 -23z"/>
<path d="M15645 2217 c-79 -21 -126 -47 -181 -102 -81 -80 -122 -222 -111
-379 19 -265 162 -406 411 -406 248 0 387 125 415 370 10 95 -1 220 -28 289
-58 154 -173 229 -361 237 -58 2 -114 -1 -145 -9z m224 -165 c84 -42 127 -154
118 -302 -7 -110 -29 -170 -77 -213 -65 -60 -179 -69 -262 -21 -20 12 -45 41
-62 74 -26 48 -30 67 -34 161 -3 79 0 120 12 162 18 63 65 123 111 143 44 20
153 18 194 -4z"/>
<path d="M16670 2219 c-219 -39 -340 -196 -340 -443 0 -214 69 -344 219 -415
53 -25 64 -26 206 -25 114 1 167 5 220 20 l70 19 3 228 2 227 -175 0 -175 0 0
-75 0 -75 80 0 80 0 0 -94 0 -94 -65 -7 c-121 -13 -210 33 -251 130 -25 59
-30 198 -11 266 37 125 123 189 254 189 48 0 95 -7 134 -20 34 -12 62 -20 63
-18 8 11 56 131 56 138 0 5 -30 19 -67 30 -79 24 -223 33 -303 19z"/>
<path d="M17520 2220 c-74 -16 -166 -67 -204 -113 -71 -88 -100 -180 -100
-322 -2 -295 144 -455 414 -455 204 0 336 89 392 265 29 90 31 270 6 355 -39
125 -124 219 -232 255 -60 20 -212 28 -276 15z m234 -180 c23 -16 47 -46 64
-80 25 -51 27 -64 27 -180 0 -117 -2 -129 -28 -183 -39 -78 -92 -110 -186
-110 -73 0 -110 14 -153 60 -43 45 -60 99 -66 204 -8 159 39 271 128 308 14 6
59 10 101 8 62 -2 82 -7 113 -27z"/>
<path d="M1190 1780 l0 -440 270 0 270 0 0 75 0 75 -175 0 -175 0 -2 363 -3
362 -92 3 -93 3 0 -441z"/>
<path d="M14700 1780 l0 -440 270 0 270 0 0 75 0 75 -177 2 -178 3 -3 363 -2
362 -90 0 -90 0 0 -440z"/>
</g>
</svg>
